<svg width="30" height="30" viewBox="0 0 30 30" fill="none" xmlns="http://www.w3.org/2000/svg">
<g id="message-text-square-02">
<path id="Icon" d="M8.75 10.625H15M8.75 15H18.75M8.75 22.5V25.4194C8.75 26.0854 8.75 26.4185 8.88654 26.5895C9.00528 26.7383 9.18534 26.8248 9.37567 26.8246C9.59453 26.8244 9.85459 26.6163 10.3747 26.2002L13.3565 23.8148C13.9656 23.3275 14.2702 23.0838 14.6094 22.9106C14.9102 22.7568 15.2305 22.6445 15.5615 22.5766C15.9346 22.5 16.3246 22.5 17.1047 22.5H20.25C22.3502 22.5 23.4003 22.5 24.2025 22.0913C24.9081 21.7317 25.4817 21.1581 25.8413 20.4525C26.25 19.6503 26.25 18.6002 26.25 16.5V9.75C26.25 7.6498 26.25 6.5997 25.8413 5.79754C25.4817 5.09193 24.9081 4.51825 24.2025 4.15873C23.4003 3.75 22.3502 3.75 20.25 3.75H9.75C7.6498 3.75 6.5997 3.75 5.79754 4.15873C5.09193 4.51825 4.51825 5.09193 4.15873 5.79754C3.75 6.5997 3.75 7.6498 3.75 9.75V17.5C3.75 18.6625 3.75 19.2437 3.87778 19.7206C4.22453 21.0147 5.23533 22.0255 6.52943 22.3722C7.0063 22.5 7.58754 22.5 8.75 22.5Z" stroke="#5B5758" stroke-width="2" stroke-linecap="round" stroke-linejoin="round"/>
</g>
</svg>
