<svg width="30" height="30" viewBox="0 0 30 30" fill="none" xmlns="http://www.w3.org/2000/svg">
<g id="gaming-pad-01">
<path id="Icon" d="M7.49993 13.75H12.4999M9.99993 11.25V16.25M18.7499 15H18.7624M22.4999 12.5H22.5124M13.0611 6.25H16.9387C20.2198 6.25 21.8604 6.25 23.1481 6.87179C24.2819 7.41925 25.2239 8.29636 25.8507 9.38824C26.5627 10.6284 26.6796 12.2648 26.9133 15.5375L27.2209 19.8431C27.3717 21.9543 25.6996 23.75 23.5831 23.75C22.5007 23.75 21.4743 23.2692 20.7814 22.4377L20.3124 21.875C19.8835 21.3603 19.669 21.1029 19.4248 20.8949C18.9128 20.459 18.2931 20.1687 17.6304 20.0545C17.3143 20 16.9793 20 16.3092 20H13.6906C13.0206 20 12.6856 20 12.3695 20.0545C11.7068 20.1687 11.087 20.459 10.5751 20.8949C10.3308 21.1029 10.1164 21.3603 9.68742 21.875L9.21847 22.4377C8.52556 23.2692 7.49911 23.75 6.41675 23.75C4.30022 23.75 2.62819 21.9543 2.77899 19.8431L3.08653 15.5375C3.3203 12.2648 3.43718 10.6284 4.14914 9.38824C4.77598 8.29636 5.71798 7.41925 6.85175 6.87179C8.13945 6.25 9.78001 6.25 13.0611 6.25Z" stroke="#5B5758" stroke-width="2" stroke-linecap="round" stroke-linejoin="round"/>
</g>
</svg>
