<svg width="31" height="31" viewBox="0 0 31 31" fill="none" xmlns="http://www.w3.org/2000/svg">
<g id="users-02">
<path id="Icon" d="M20.6668 4.47919C22.5807 5.43031 23.896 7.40531 23.896 9.6875C23.896 11.9697 22.5807 13.9447 20.6668 14.8958M23.2502 21.6566C25.2025 22.54 26.9605 23.9798 28.4168 25.8333M2.5835 25.8333C5.09771 22.6333 8.51119 20.6667 12.271 20.6667C16.0308 20.6667 19.4443 22.6333 21.9585 25.8333M18.0835 9.6875C18.0835 12.8977 15.4812 15.5 12.271 15.5C9.06084 15.5 6.4585 12.8977 6.4585 9.6875C6.4585 6.47734 9.06084 3.875 12.271 3.875C15.4812 3.875 18.0835 6.47734 18.0835 9.6875Z" stroke="#5B5758" stroke-width="2" stroke-linecap="round" stroke-linejoin="round"/>
</g>
</svg>
